<svg xmlns="http://www.w3.org/2000/svg" viewBox="0 0 200 150" width="200" height="150">
  <!-- Background -->
  <rect width="200" height="150" fill="#FFFBEB"/>

  <!-- Decorative border -->
  <rect x="5" y="5" width="190" height="140" fill="none" stroke="#92400E" stroke-width="1" opacity="0.3" rx="2"/>

  <!-- Header section -->
  <rect x="10" y="10" width="180" height="30" fill="#92400E" rx="2"/>
  <rect x="50" y="18" width="100" height="4" rx="2" fill="#FFFBEB" opacity="0.9"/>
  <rect x="70" y="26" width="60" height="2" rx="1" fill="#B45309"/>

  <!-- Hero section with organic feel -->
  <rect x="25" y="50" width="150" height="35" fill="#FEF3C7" rx="3"/>
  <rect x="55" y="58" width="90" height="4" rx="2" fill="#92400E" opacity="0.7"/>
  <rect x="65" y="67" width="70" height="2" rx="1" fill="#78350F" opacity="0.5"/>
  <rect x="60" y="74" width="80" height="2" rx="1" fill="#78350F" opacity="0.3"/>

  <!-- Content blocks with rustic styling -->
  <rect x="15" y="95" width="50" height="35" rx="3" fill="#FDE68A" opacity="0.5"/>
  <rect x="75" y="95" width="50" height="35" rx="3" fill="#FCD34D" opacity="0.4"/>
  <rect x="135" y="95" width="50" height="35" rx="3" fill="#FDE68A" opacity="0.5"/>

  <!-- Content block headers -->
  <rect x="20" y="100" width="30" height="3" rx="1.5" fill="#92400E"/>
  <rect x="80" y="100" width="30" height="3" rx="1.5" fill="#B45309"/>
  <rect x="140" y="100" width="30" height="3" rx="1.5" fill="#92400E"/>

  <!-- Footer flourish -->
  <rect x="70" y="138" width="60" height="2" rx="1" fill="#92400E" opacity="0.4"/>
</svg>
